# xmcd CD database file
#
# Track frame offsets:
#	182
#	16732
#	39222
#	59980
#	76365
#	97415
#	116672
#	137342
#	163600
#	187685
#	208592
#	229602
#	245582
#
# Disc length: 3566 seconds
#
# Revision: 3
# Processed by: cddbd v1.5.2PL0 Copyright (c) Steve Scherf et al.
# Submitted via: CDex 1.51
#
DISCID=a70dec0d
DTITLE=Steve Young - Solo/Live
DYEAR=1991
DGENRE=Country
TTITLE0=Wjhite Trash Song
TTITLE1=Tabacco Road
TTITLE2=Seven Bridges Road
TTITLE3=Don't miss your water
TTITLE4=The River and the Swan
TTITLE5=Lang way to Hollywood
TTITLE6=Don't think twice it's alright
TTITLE7=Ballad of William Sycamore
TTITLE8=Weve been together ofn this earth before
TTITLE9=Montgomery in the Rain
TTITLE10=Go to The Sea No More
TTITLE11=All Her Lovers want to be her Lover
TTITLE12=Drift Away
EXTD=YEAR: 1991
EXTT0=
EXTT1=
EXTT2=
EXTT3=
EXTT4=
EXTT5=
EXTT6=
EXTT7=
EXTT8=
EXTT9=
EXTT10=
EXTT11=
EXTT12=
PLAYORDER=
